<?xml version="1.0" encoding="utf-8"?>
<!-- Svg Vector Icons : http://www.onlinewebfonts.com/icon -->
<!DOCTYPE svg PUBLIC "-//W3C//DTD SVG 1.1//EN" "http://www.w3.org/Graphics/SVG/1.1/DTD/svg11.dtd">
<svg version="1.1" xmlns="http://www.w3.org/2000/svg" xmlns:xlink="http://www.w3.org/1999/xlink" x="0px" y="0px" viewBox="0 0 256 256" enable-background="new 0 0 256 256" xml:space="preserve">
<metadata> Svg Vector Icons : http://www.onlinewebfonts.com/icon </metadata>
<g><g><path fill="#000000" d="M152.4,138.1c0,0-0.9-0.2-2.7-0.5c-1.5,5.4-11.3,9.5-23.1,9.5c-11.4,0-20.9-3.9-22.9-9c-44.1,10.9-40.9,51.9-40.9,51.9c64.5,19.8,130.7,0,130.7,0S196.6,148.9,152.4,138.1z"/><path fill="#000000" d="M128,136.1c16.6,0,30.1-15.7,30.1-35.2c0-25.8-13.5-35.2-30.1-35.2c-16.6,0-30.1,9.3-30.1,35.2C97.9,120.4,111.4,136.1,128,136.1z"/><path fill="#000000" d="M190.8,116.5c14,0,25.4-13.3,25.4-29.7c0-21.8-11.4-29.7-25.4-29.7c-14,0-25.4,7.9-25.4,29.7C165.4,103.2,176.8,116.5,190.8,116.5z"/><path fill="#000000" d="M211.4,118.1c0,0-0.8-0.2-2.3-0.5c-1.3,4.6-9.5,8-19.5,8c-9.7,0-17.7-3.3-19.4-7.6c-3.4,0.8-6.5,1.9-9.2,3.1c-1.7,3.6-3.9,6.9-6.4,9.8c25.8,6.5,38.1,23,43.3,38.2c28-1.2,48.2-7.2,48.2-7.2S248.7,127.3,211.4,118.1z"/><path fill="#000000" d="M101.5,131c-2.5-2.9-4.7-6.1-6.4-9.7c-2.8-1.2-5.9-2.3-9.3-3.1c0,0-0.8-0.2-2.3-0.5c-1.3,4.6-9.5,8-19.5,8c-9.7,0-17.7-3.3-19.4-7.6C7.3,127.3,10,162,10,162c16.4,5.1,33,7,48.1,7.3C63.3,154.1,75.6,137.5,101.5,131z"/><path fill="#000000" d="M65.2,116.5c14,0,25.4-13.3,25.4-29.7c0-21.8-11.4-29.7-25.4-29.7S39.8,65,39.8,86.8C39.8,103.2,51.2,116.5,65.2,116.5z"/></g></g>
</svg>